<?xml version="1.0" encoding="utf-8"?>
<!-- Generator: Adobe Illustrator 23.0.3, SVG Export Plug-In . SVG Version: 6.00 Build 0)  -->
<svg version="1.1" id="Layer_1" xmlns="http://www.w3.org/2000/svg" xmlns:xlink="http://www.w3.org/1999/xlink" x="0px" y="0px"
	 viewBox="0 0 512 512" style="enable-background:new 0 0 512 512;" xml:space="preserve">
<style type="text/css">
	.st0{fill:#FFFFFF;}
	.st1{fill:#EA0000;}
	.st2{fill:#07189B;}
	.st3{fill:none;stroke:#000000;stroke-width:12;stroke-miterlimit:10;}
</style>
<path class="st0" d="M391.5,501H120.5C60,501,11,452,11,391.5V120.5C11,60,60,11,120.5,11h271.1C452,11,501,60,501,120.5v271.1
	C501,452,452,501,391.5,501z"/>
<g>
	<path class="st1" d="M501,256c0,50.1,0,100.2,0,150.2c-1.7,1.5-1.4,3.8-1.7,5.7c-6.9,42.9-42.2,79.3-84.5,87
		c-3.2,0.6-6.6,0.4-9.5,2.1c-99.8,0-199.7,0-299.5,0c-3.3-2.3-7.3-1.7-10.9-2.6C44.1,485.9,11.1,444.1,11,391.8
		c-0.1-27.1,0-54.2,0-81.3c0-18.2,0.1-36.4,0.2-54.5c79.5,0,159.1,0,238.6,0c2.1,0,4.1-0.1,6.2-0.2c2.1,0.1,4.1,0.2,6.2,0.2
		C341.8,256,421.4,256,501,256z"/>
	<path class="st2" d="M11.2,256c-0.1-26.8-0.1-53.6-0.2-80.4c0-18.5,0-37,0-55.5c0.1-48.2,27.8-87.4,73.3-103.5
		c10.9-3.9,22.3-5.6,33.8-5.6c45.9-0.1,91.9,0,137.8,0c0,13.7,0.1,27.4,0.1,41.1c0,67.9,0,135.8,0,203.7c-2.1,0.1-4.1,0.2-6.2,0.2
		C170.3,256,90.7,256,11.2,256z M93.6,186.3c0.1,2.2,1,3.8,2.8,4.9c2.5,1.4,4.6,0.6,6.6-0.9c9.2-6.6,18.5-13.1,27.6-19.8
		c2.2-1.6,3.6-1.6,5.8,0c8.7,6.4,17.6,12.6,26.4,18.9c2.5,1.8,5.1,3.7,8.2,1.5c3.4-2.4,2.2-5.5,1.2-8.6c-3.3-10.1-6.4-20.3-9.7-30.5
		c-0.9-2.6-0.6-4.2,1.9-6c8.8-6.3,17.5-12.8,26.2-19.2c2.5-1.8,5.1-3.7,3.8-7.4c-1.3-3.5-4.3-3.7-7.5-3.7c-10.7,0-21.4-0.2-32-0.1
		c-3,0-4.4-0.7-5.4-3.8c-3.2-10.3-6.8-20.5-10.2-30.8c-0.9-2.8-2-5.6-5.5-5.7c-3.8-0.1-5,2.7-6,5.7c-3.4,10.3-7,20.5-10.2,30.8
		c-1,3.1-2.4,3.8-5.4,3.8c-10.8-0.1-21.7,0.1-32.5,0.1c-3,0-5.8,0.5-7,3.7c-1.2,3.4,0.9,5.3,3.4,7.1c8.9,6.5,17.6,13.1,26.6,19.5
		c2.4,1.7,2.7,3.3,1.9,6c-3.1,9.4-6,18.8-9,28.2C94.8,182.2,94.2,184.3,93.6,186.3z"/>
</g>
<path class="st3" d="M391.5,501H120.5C60,501,11,452,11,391.5V120.5C11,60,60,11,120.5,11h271.1C452,11,501,60,501,120.5v271.1
	C501,452,452,501,391.5,501z"/>
</svg>
