<?xml version="1.0" encoding="utf-8"?>
<!-- Generator: Adobe Illustrator 23.0.3, SVG Export Plug-In . SVG Version: 6.00 Build 0)  -->
<svg version="1.1" id="Layer_1" xmlns="http://www.w3.org/2000/svg" xmlns:xlink="http://www.w3.org/1999/xlink" x="0px" y="0px"
	 viewBox="0 0 512 512" style="enable-background:new 0 0 512 512;" xml:space="preserve">
<style type="text/css">
	.st0{fill:#FFFFFF;}
	.st1{fill:#EA0000;}
	.st2{fill:none;stroke:#000000;stroke-width:12;stroke-miterlimit:10;}
</style>
<rect x="157" y="11.5" class="st0" width="198" height="489"/>
<g>
	<path class="st1" d="M173.4,11c-0.1,2.4-0.3,4.8-0.3,7.2c0,158.6,0,317.3,0,475.9c0,6.9,0,6.9-7,6.9c-15.2,0-30.3,0.1-45.5,0
		c-25.3-0.3-48.5-7-68.5-23c-21.7-17.3-35.3-39.6-39.3-67.2c-1.2-8.3-1.8-16.8-1.8-25.2C11,297.9,11,210.3,11,122.7
		c0-33.6,11.3-62.4,37-84.8c17.7-15.5,38.4-24.2,62-25.7c2-0.1,4-0.8,6-1.2C135.1,11,154.3,11,173.4,11z"/>
	<path class="st1" d="M501,396c-0.7,4.8-1.4,9.7-2.1,14.5c-6.4,44-41.6,80.6-85.3,88.3c-7.8,1.4-15.8,1.9-23.8,2
		c-15.5,0.3-31,0-46.4,0.2c-4.1,0.1-5.3-1.3-5.1-5.2c0.3-4.6,0.1-9.3,0.1-13.9c0-154.4,0-308.9,0-463.3c0-2.6-0.1-5.1-0.2-7.7
		c19.2,0,38.3,0,57.5,0c6,0.8,11.9,1.4,17.9,2.5c43.6,7.7,79,44.3,85.4,88.4c0.7,4.8,1.4,9.7,2.1,14.5C501,209.5,501,302.8,501,396z
		"/>
</g>
<path class="st2" d="M391.5,501H120.5C60,501,11,452,11,391.5V120.5C11,60,60,11,120.5,11h271.1C452,11,501,60,501,120.5v271.1
	C501,452,452,501,391.5,501z"/>
</svg>
